<svg width="20" height="20" viewBox="0 0 20 20" fill="none" xmlns="http://www.w3.org/2000/svg">
<g clip-path="url(#clip0_356_347)">
<path opacity="0.4" d="M7.08317 8.74996C8.00365 8.74996 8.74984 8.00377 8.74984 7.08329C8.74984 6.16282 8.00365 5.41663 7.08317 5.41663C6.1627 5.41663 5.4165 6.16282 5.4165 7.08329C5.4165 8.00377 6.1627 8.74996 7.08317 8.74996Z" stroke="white" stroke-width="1.5" stroke-linecap="round" stroke-linejoin="round"/>
<path d="M4.99949 16.667L12.3904 9.2761C12.7204 8.94609 12.8854 8.78108 13.0757 8.71926C13.243 8.66488 13.4233 8.66488 13.5907 8.71926C13.781 8.78108 13.946 8.9461 14.276 9.2761L17.8375 12.8377M18.3332 9.99996C18.3332 14.6023 14.6022 18.3333 9.99984 18.3333C5.39746 18.3333 1.6665 14.6023 1.6665 9.99996C1.6665 5.39759 5.39746 1.66663 9.99984 1.66663C14.6022 1.66663 18.3332 5.39759 18.3332 9.99996Z" stroke="white" stroke-width="1.5" stroke-linecap="round" stroke-linejoin="round"/>
</g>
<defs>
<clipPath id="clip0_356_347">
<rect width="20" height="20" fill="white"/>
</clipPath>
</defs>
</svg>
